<svg xmlns="http://www.w3.org/2000/svg" x="0px" y="0px" width="15" height="15" viewBox="0 0 172 172" style="fill:#fff;">
  <g transform="">
    <g fill="none" fill-rule="nonzero" stroke="none" stroke-width="1" stroke-linecap="butt" stroke-linejoin="miter" stroke-miterlimit="10" stroke-dasharray="" stroke-dashoffset="0" font-family="none" font-weight="none" font-size="none" text-anchor="none" style="mix-blend-mode: normal">
      <path d="M0,172v-172h172v172z" fill="none"></path>
      <g id="original-icon" fill="#fff">
        <path d="M86,17.2c-41.09653,0 -74.53333,33.4368 -74.53333,74.53333c0,27.37093 14.86913,51.27938 36.91953,64.24245l6.19245,-9.6414c-18.87987,-10.91053 -31.64531,-31.27211 -31.64531,-54.60104c0,-34.77267 28.294,-63.06667 63.06667,-63.06667c34.77267,0 63.06667,28.294 63.06667,63.06667c0,23.32893 -12.76544,43.69051 -31.64531,54.60104l6.19245,9.6414c22.0504,-12.96307 36.91953,-36.87151 36.91953,-64.24245c0,-41.09653 -33.4368,-74.53333 -74.53333,-74.53333zM86,40.13333c-28.4488,0 -51.6,23.1512 -51.6,51.6c0,19.28693 10.66149,36.11857 26.38229,44.97083l6.19245,-9.65261c-12.556,-6.78827 -21.10808,-20.06756 -21.10808,-35.31823c0,-22.13067 18.00267,-40.13333 40.13333,-40.13333c22.13067,0 40.13333,18.00267 40.13333,40.13333c0,15.25067 -8.55208,28.53542 -21.10808,35.32942l6.19245,9.64141c15.72079,-8.858 26.38229,-25.6839 26.38229,-44.97083c0,-28.4488 -23.1512,-51.6 -51.6,-51.6zM86,63.06667c-15.8068,0 -28.66667,12.85987 -28.66667,28.66667c0,11.20867 6.52651,20.82965 15.92344,25.54245l6.20364,-9.6414c-6.24933,-2.58 -10.66042,-8.72864 -10.66042,-15.90104c0,-9.48293 7.71707,-17.2 17.2,-17.2c9.48293,0 17.2,7.71707 17.2,17.2c0,7.1724 -4.41655,13.31557 -10.67161,15.88984l6.20364,9.65261c9.40267,-4.70707 15.93464,-14.33378 15.93464,-25.54245c0,-15.8068 -12.85987,-28.66667 -28.66667,-28.66667zM86,86c-3.16643,0 -5.73333,2.5669 -5.73333,5.73333c0,3.16643 2.5669,5.73333 5.73333,5.73333c3.16643,0 5.73333,-2.5669 5.73333,-5.73333c0,-3.16643 -2.5669,-5.73333 -5.73333,-5.73333z"></path>
      </g>
      <path d="" fill="none"></path>
    </g>
  </g>
</svg>